<?xml version="1.0" encoding="UTF-8"?> <svg xmlns="http://www.w3.org/2000/svg" id="Capa_1" width="180mm" height="185mm" viewBox="0 0 510.24 524.41"><g><path d="M255.12,41.78c-14.46,4.5-195.17,60.76-195.17,60.76,0,0-47.05,304.66,195.17,380.1,242.24-75.43,195.18-380.1,195.18-380.1,0,0-180.72-56.26-195.17-60.76Z" fill="#fff"></path><path d="M255.11,503.15c-.38,0-.76-.06-1.12-.17-60.21-18.75-108.88-52.22-144.65-99.47-28.56-37.73-48.97-84.25-60.65-138.26-19.84-91.72-7.43-174.59-7.3-175.42,.22-1.42,1.23-2.6,2.61-3.03L254,21.43c.73-.23,1.51-.23,2.24,0l210,65.38c1.38,.43,2.39,1.6,2.61,3.03,.13,.83,12.53,83.7-7.31,175.42-11.68,54.01-32.09,100.53-60.65,138.26-35.77,47.25-84.44,80.71-144.66,99.46-.37,.11-.74,.17-1.12,.17ZM48.53,93.3c-1.82,13.94-10.16,88.69,7.59,170.57,11.47,52.89,31.42,98.37,59.31,135.18,34.57,45.62,81.56,78.04,139.68,96.37,58.12-18.32,105.12-50.74,139.69-96.36,27.89-36.81,47.85-82.3,59.32-135.18,17.75-81.88,9.41-156.63,7.59-170.57L255.12,28.99,48.53,93.3Z" fill="#fff"></path></g><path d="M274.16,345.46c0-5.16,1.72-9.45,5.17-12.87,3.45-3.42,7.93-5.13,13.43-5.13s10.06,1.71,13.65,5.13c3.59,3.42,5.39,7.71,5.39,12.87s-1.8,9.41-5.39,12.74c-3.6,3.33-8.15,5-13.65,5s-9.99-1.68-13.43-5.04c-3.45-3.36-5.17-7.59-5.17-12.69Z" fill="#45b8ac"></path><path d="M105.31,240.58c0-2.49,1.84-4.63,4.31-4.95,15.5-2.01,17.25-11.32,17.25-19.14,0-7.06-.78-14.69-1.55-22.31-.82-7.69-1.6-15.36-1.6-22.5,0-26.84,16.79-38.44,43.38-38.44h4.98c2.76,0,5.01,2.24,5.01,5.01v14.15c0,2.76-2.24,5.01-5.01,5.01h-.11c-12.84,0-17.37,7.7-17.37,20.22,0,5.04,.72,10.33,1.44,16.18,.67,5.87,1.39,12.29,1.39,19.61,.37,21.46-8.43,29.68-24.33,33.07v.57c15.9,3.34,24.69,11.61,24.33,33.25,0,7.42-.72,13.96-1.39,19.88-.72,5.92-1.44,11.11-1.44,15.99,0,12.66,4.39,20.61,17.48,20.61h0c2.76,0,5.01,2.24,5.01,5.01v13.98c0,2.76-2.24,5.01-5.01,5.01h-5.15c-25.59,0-43.21-10.39-43.21-38.88,0-7.1,.78-14.75,1.6-22.41,.78-7.63,1.55-15.24,1.55-22.19,0-7.33-1.75-17.09-17.27-19.16-2.46-.33-4.28-2.47-4.28-4.95v-12.6Z" fill="#114c8e"></path><path d="M204.56,353.7l63.91-216.51c.69-2.34,2.84-3.95,5.28-3.95h20.19c3.68,0,6.33,3.54,5.28,7.07l-64.05,216.51c-.69,2.34-2.84,3.95-5.28,3.95h-20.05c-3.68,0-6.33-3.54-5.28-7.07Z" fill="#45b8ac"></path><path d="M413.32,253.18c0,2.48-1.82,4.62-4.28,4.95-15.52,2.08-17.27,11.83-17.27,19.16s.78,14.56,1.6,22.19c.78,7.66,1.55,15.31,1.55,22.41,0,28.48-17.62,38.88-43.21,38.88h-5.15c-2.76,0-5.01-2.24-5.01-5.01v-13.98c0-2.76,2.24-5.01,5.01-5.01h0c13.09-.32,17.48-7.95,17.48-20.61,0-4.88-.72-10.07-1.39-15.99-.72-5.91-1.44-12.46-1.44-19.88-.37-21.64,8.43-29.91,24.33-33.25v-.57c-15.9-3.39-24.69-11.61-24.33-33.07,0-7.32,.72-13.74,1.44-19.61,.66-5.86,1.39-11.14,1.39-16.18,0-12.52-4.52-19.96-17.37-20.22h-.11c-2.76,0-5.01-2.24-5.01-5.01v-14.15c0-2.76,2.24-5.01,5.01-5.01h4.98c26.58,0,43.38,11.6,43.38,38.44,0,7.15-.78,14.81-1.55,22.5-.82,7.62-1.6,15.24-1.6,22.31,0,7.82,1.75,17.13,17.25,19.14,2.47,.32,4.31,2.46,4.31,4.95v12.6Z" fill="#114c8e"></path></svg> 